<svg width="60" height="61" viewBox="0 0 60 61" fill="none" xmlns="http://www.w3.org/2000/svg">
<rect y="0.61615" width="60" height="60" rx="8" fill="#7C7DFD"/>
<path d="M41.9999 35.8862V23.3462C42.7194 23.0955 43.3635 22.6662 43.8718 22.0986C44.38 21.531 44.7359 20.8437 44.9059 20.101C45.076 19.3583 45.0546 18.5846 44.844 17.8524C44.6333 17.1202 44.2402 16.4535 43.7014 15.9147C43.1626 15.3759 42.4959 14.9828 41.7637 14.7721C41.0315 14.5615 40.2578 14.5401 39.5151 14.7102C38.7724 14.8802 38.0851 15.2361 37.5175 15.7443C36.9499 16.2526 36.5206 16.8967 36.2699 17.6162H23.7299C23.4793 16.8967 23.05 16.2526 22.4824 15.7443C21.9148 15.2361 21.2275 14.8802 20.4848 14.7102C19.7421 14.5401 18.9684 14.5615 18.2362 14.7721C17.504 14.9828 16.8372 15.3759 16.2985 15.9147C15.7597 16.4535 15.3666 17.1202 15.1559 17.8524C14.9452 18.5846 14.9239 19.3583 15.094 20.101C15.264 20.8437 15.6198 21.531 16.1281 22.0986C16.6364 22.6662 17.2805 23.0955 17.9999 23.3462V35.8862C17.2805 36.1368 16.6364 36.5661 16.1281 37.1337C15.6198 37.7013 15.264 38.3886 15.094 39.1313C14.9239 39.874 14.9452 40.6477 15.1559 41.3799C15.3666 42.1121 15.7597 42.7789 16.2985 43.3176C16.8372 43.8564 17.504 44.2495 18.2362 44.4602C18.9684 44.6709 19.7421 44.6922 20.4848 44.5221C21.2275 44.3521 21.9148 43.9963 22.4824 43.488C23.05 42.9797 23.4793 42.3356 23.7299 41.6162H36.2699C36.5206 42.3356 36.9499 42.9797 37.5175 43.488C38.0851 43.9963 38.7724 44.3521 39.5151 44.5221C40.2578 44.6922 41.0315 44.6709 41.7637 44.4602C42.4959 44.2495 43.1626 43.8564 43.7014 43.3176C44.2402 42.7789 44.6333 42.1121 44.844 41.3799C45.0546 40.6477 45.076 39.874 44.9059 39.1313C44.7359 38.3886 44.38 37.7013 43.8718 37.1337C43.3635 36.5661 42.7194 36.1368 41.9999 35.8862ZM40.4999 17.6162C40.7966 17.6162 41.0866 17.7041 41.3333 17.869C41.58 18.0338 41.7722 18.268 41.8858 18.5421C41.9993 18.8162 42.029 19.1178 41.9711 19.4088C41.9132 19.6998 41.7704 19.967 41.5606 20.1768C41.3508 20.3866 41.0836 20.5295 40.7926 20.5873C40.5016 20.6452 40.2 20.6155 39.9259 20.502C39.6518 20.3884 39.4176 20.1962 39.2527 19.9495C39.0879 19.7028 38.9999 19.4128 38.9999 19.1162C38.9999 18.7183 39.158 18.3368 39.4393 18.0555C39.7206 17.7742 40.1021 17.6162 40.4999 17.6162ZM19.4999 17.6162C19.7966 17.6162 20.0866 17.7041 20.3333 17.869C20.58 18.0338 20.7722 18.268 20.8858 18.5421C20.9993 18.8162 21.029 19.1178 20.9711 19.4088C20.9132 19.6998 20.7704 19.967 20.5606 20.1768C20.3508 20.3866 20.0836 20.5295 19.7926 20.5873C19.5016 20.6452 19.2 20.6155 18.9259 20.502C18.6518 20.3884 18.4176 20.1962 18.2527 19.9495C18.0879 19.7028 17.9999 19.4128 17.9999 19.1162C17.9999 18.7183 18.158 18.3368 18.4393 18.0555C18.7206 17.7742 19.1021 17.6162 19.4999 17.6162ZM19.4999 41.6162C19.2033 41.6162 18.9133 41.5282 18.6666 41.3634C18.4199 41.1985 18.2277 40.9643 18.1141 40.6902C18.0006 40.4161 17.9709 40.1145 18.0288 39.8235C18.0866 39.5325 18.2295 39.2653 18.4393 39.0555C18.6491 38.8457 18.9163 38.7029 19.2073 38.645C19.4983 38.5871 19.7999 38.6168 20.074 38.7303C20.3481 38.8439 20.5823 39.0361 20.7471 39.2828C20.912 39.5295 20.9999 39.8195 20.9999 40.1162C20.9999 40.514 20.8419 40.8955 20.5606 41.1768C20.2793 41.4581 19.8978 41.6162 19.4999 41.6162ZM36.2699 38.6162H23.7299C23.506 37.9871 23.1448 37.4157 22.6726 36.9435C22.2004 36.4713 21.629 36.1101 20.9999 35.8862V23.3462C21.629 23.1222 22.2004 22.761 22.6726 22.2888C23.1448 21.8166 23.506 21.2453 23.7299 20.6162H36.2699C36.4939 21.2453 36.8551 21.8166 37.3273 22.2888C37.7995 22.761 38.3708 23.1222 38.9999 23.3462V35.8862C38.3708 36.1101 37.7995 36.4713 37.3273 36.9435C36.8551 37.4157 36.4939 37.9871 36.2699 38.6162ZM40.4999 41.6162C40.2033 41.6162 39.9133 41.5282 39.6666 41.3634C39.4199 41.1985 39.2277 40.9643 39.1141 40.6902C39.0006 40.4161 38.9709 40.1145 39.0288 39.8235C39.0866 39.5325 39.2295 39.2653 39.4393 39.0555C39.6491 38.8457 39.9163 38.7029 40.2073 38.645C40.4983 38.5871 40.7999 38.6168 41.074 38.7303C41.3481 38.8439 41.5823 39.0361 41.7472 39.2828C41.912 39.5295 41.9999 39.8195 41.9999 40.1162C41.9999 40.514 41.8419 40.8955 41.5606 41.1768C41.2793 41.4581 40.8978 41.6162 40.4999 41.6162Z" fill="white"/>
</svg>
